<?xml version="1.0" encoding="utf-8"?>
<!-- Generator: Adobe Illustrator 24.1.2, SVG Export Plug-In . SVG Version: 6.00 Build 0)  -->
<svg version="1.1" id="Слой_1" xmlns="http://www.w3.org/2000/svg" xmlns:xlink="http://www.w3.org/1999/xlink" x="0px" y="0px"
	 viewBox="0 0 1776.3 961.2" style="enable-background:new 0 0 1776.3 961.2;" xml:space="preserve">
<style type="text/css">
	.st0{fill:#FFFFFF;}
</style>
<polygon class="st0" points="134.6,250.1 352,233.8 388,490.4 178.7,537.8 "/>
<polygon class="st0" points="536.7,29.4 566.1,354.7 840.7,317.1 821.1,39.2 "/>
<path class="st0" d="M1286.1,281.2h5c7.6,0,13.8-6.2,13.8-13.8V192c0-7.6,6.2-13.8,13.8-13.8h260c7.6,0,13.8,6.2,13.8,13.8V524
	c0,7.6-6.2,13.8-13.8,13.8h-0.6c-7.5,0-13.6-5.9-13.8-13.4l-0.7-22.5c-0.2-7.4-6.2-13.3-13.6-13.4l-190.5-2.9
	c-7.6-0.1-13.9,5.9-14,13.5l-1.1,49.5c-0.2,7.5-6.3,13.5-13.8,13.5l0,0c-4.8,0-9.2-2.5-11.8-6.5l-44.5-71.8
	c-1.4-2.2-2.1-4.7-2.1-7.3V295C1272.3,287.4,1278.5,281.2,1286.1,281.2z"/>
<path class="st0" d="M1036.9,460.1l40.9-23.6c0,0,22.9-18,22.9,0c0,18-8.2,76.8-8.2,76.8s-1.1,15.5-15.8,15.5s-39.8-3.3-39.8-3.3
	V460.1z"/>
</svg>
